<?xml version="1.0" standalone="no"?>
<!DOCTYPE svg PUBLIC "-//W3C//DTD SVG 20010904//EN"
 "http://www.w3.org/TR/2001/REC-SVG-20010904/DTD/svg10.dtd">
<svg version="1.0" xmlns="http://www.w3.org/2000/svg"
 width="40pt" height="40" viewBox="0 0 460.000000 460.000000"
 preserveAspectRatio="xMidYMid meet">

<g transform="translate(0.000000,460.000000) scale(0.100000,-0.100000)"
fill="orange" stroke="none">
<path d="M1021 4194 c-50 -191 -158 -598 -507 -1906 -222 -834 -404 -1519
-404 -1522 0 -3 98 -6 219 -6 l218 0 16 58 c9 31 89 332 178 667 89 336 228
862 310 1170 82 308 163 614 180 680 17 66 35 124 40 129 4 5 229 -184 501
-420 271 -236 500 -435 510 -442 14 -11 81 43 523 425 279 241 512 438 518
438 6 0 25 -54 43 -120 34 -127 226 -852 493 -1860 89 -335 169 -636 178 -667
l16 -58 218 0 c121 0 219 3 219 6 0 9 -911 3428 -918 3446 -6 13 -140 -100
-640 -533 -348 -302 -634 -549 -637 -549 -4 0 -1173 1019 -1237 1078 l-27 24
-10 -38z"/>
<path d="M1310 3098 c-17 -68 -76 -287 -130 -488 -89 -334 -196 -733 -410
-1535 -44 -164 -80 -303 -80 -307 0 -4 103 -8 228 -8 l228 0 17 68 c9 37 48
184 86 327 38 143 130 494 206 780 75 286 140 525 143 531 4 7 144 -111 350
-297 189 -170 345 -309 348 -309 2 0 155 136 340 303 185 166 341 303 348 305
7 1 87 -279 215 -755 112 -417 215 -802 230 -855 l26 -98 228 0 c125 0 227 3
227 8 0 7 -56 217 -275 1037 -62 231 -165 618 -230 860 -64 242 -124 466 -133
498 l-17 59 -477 -411 c-262 -226 -479 -411 -482 -411 -3 0 -77 62 -164 138
-358 311 -758 658 -773 670 -15 11 -20 -1 -49 -110z"/>
<path d="M1652 2152 c-12 -42 -30 -111 -41 -152 -82 -314 -305 -1154 -316
-1192 l-14 -48 232 0 232 0 273 226 274 226 25 -24 c13 -12 106 -114 206 -225
l182 -203 292 0 c161 0 293 2 293 4 0 2 -158 153 -350 336 -242 230 -347 336
-341 344 6 6 98 83 205 171 107 88 196 165 196 170 2 17 -115 405 -121 405 -4
0 -220 -173 -479 -385 -260 -212 -474 -384 -476 -382 -2 2 26 108 61 237 36
129 65 238 65 242 0 6 -341 305 -366 321 -8 5 -19 -19 -32 -71z"/>
</g>
</svg>
