<?xml version="1.0" standalone="no"?>
<!DOCTYPE svg PUBLIC "-//W3C//DTD SVG 20010904//EN"
 "http://www.w3.org/TR/2001/REC-SVG-20010904/DTD/svg10.dtd">
<svg version="1.0" xmlns="http://www.w3.org/2000/svg"
 width="45" height="45" viewBox="0 0 1024.000000 1024.000000"
 preserveAspectRatio="xMidYMid meet">

<g transform="translate(0.000000,1024.000000) scale(0.100000,-0.100000)"
fill="blue" stroke="none">
<path d="M4755 8814 c-494 -67 -989 -286 -1375 -607 -526 -439 -875 -1077
-967 -1763 -23 -175 -23 -531 1 -704 24 -176 60 -332 116 -500 46 -139 145
-370 187 -438 l20 -32 85 162 c47 90 93 177 103 193 18 30 17 31 -29 154 -53
141 -96 305 -123 466 -26 157 -26 563 0 720 105 630 434 1181 928 1550 246
184 588 341 895 410 59 13 110 28 114 32 13 15 220 360 220 367 0 9 -62 6
-175 -10z"/>
<path d="M5320 8826 c0 -4 37 -65 81 -134 45 -70 97 -152 117 -183 33 -53 39
-57 91 -69 353 -78 692 -234 976 -449 132 -101 343 -311 439 -438 42 -57 79
-103 82 -103 6 0 -34 56 -64 90 -12 14 -20 31 -17 38 3 8 0 10 -7 6 -7 -5 -9
-2 -5 9 4 12 2 14 -11 10 -15 -6 -15 -5 -4 10 8 9 12 22 9 29 -3 8 -6 6 -6 -5
-1 -17 -3 -17 -32 3 -16 12 -28 25 -25 28 3 2 12 -1 20 -7 25 -21 36 -3 34 52
l-2 52 -3 -47 c-3 -34 -8 -48 -19 -48 -8 0 -14 10 -14 25 0 14 4 25 9 25 6 0
7 15 4 34 -3 19 -1 36 6 40 16 10 15 183 -1 201 -34 38 -39 47 -36 67 4 27 29
37 26 11 -3 -38 2 -64 12 -58 6 4 7 11 4 17 -4 6 0 14 7 19 7 4 10 11 6 16 -5
4 -12 1 -17 -7 -6 -9 -10 -10 -10 -3 0 24 22 25 43 2 18 -20 19 -22 3 -16 -13
5 -17 3 -13 -7 3 -7 0 -19 -6 -26 -9 -10 -9 -11 2 -5 11 7 13 2 8 -24 l-7 -31
25 16 c23 15 37 33 16 19 -6 -3 -15 4 -22 16 -10 19 -9 21 4 16 12 -4 14 -1
10 11 -4 11 6 6 26 -13 17 -16 29 -35 26 -43 -3 -7 0 -10 6 -6 6 3 27 -9 47
-27 21 -18 -26 30 -103 107 -345 343 -727 564 -1205 699 -174 49 -510 102
-510 81z m1506 -631 c-1 -8 -5 -17 -8 -21 -5 -4 -4 16 1 34 3 9 9 -1 7 -13z
m70 -28 c3 -3 -6 -4 -22 -1 -16 3 -31 7 -34 10 -2 3 7 4 22 2 15 -2 30 -7 34
-11z m-5 -50 c-10 -9 -11 -8 -5 6 3 10 9 15 12 12 3 -3 0 -11 -7 -18z m55 -2
c13 -12 12 -16 -8 -26 -22 -12 -22 -11 -8 6 14 17 13 18 -2 12 -12 -4 -15 -2
-11 9 7 18 11 18 29 -1z m11 -302 c-3 -10 -5 -4 -5 12 0 17 2 24 5 18 2 -7 2
-21 0 -30z m-88 -28 c13 5 13 4 4 -6 -10 -10 -18 -8 -38 11 -14 13 -25 28 -25
33 0 5 10 -2 21 -17 14 -18 27 -25 38 -21z m85 -69 c-9 -35 -17 -39 -34 -13
-12 20 -12 21 3 8 15 -11 17 -11 17 1 0 8 -6 20 -12 28 -10 11 -9 11 6 0 18
-14 19 -13 12 5 -5 15 -4 17 4 9 6 -6 8 -22 4 -38z"/>
<path d="M5085 8244 c-11 -2 -45 -9 -75 -15 -72 -15 -184 -66 -251 -116 -154
-115 -258 -273 -374 -568 -25 -66 -93 -210 -149 -320 -57 -110 -161 -312 -231
-450 -126 -246 -335 -649 -685 -1320 -98 -187 -212 -407 -255 -490 -43 -82
-119 -229 -170 -325 -314 -597 -326 -626 -326 -780 -1 -207 79 -338 257 -422
64 -30 76 -33 174 -32 90 0 115 4 174 27 83 33 182 102 229 160 19 23 128 181
241 351 232 346 256 379 364 490 287 293 612 470 950 516 111 15 304 8 442
-16 285 -50 545 -199 816 -469 120 -119 186 -207 421 -563 212 -320 267 -381
399 -444 85 -41 94 -43 196 -47 84 -2 119 1 165 15 l58 19 -40 5 c-89 13 -180
86 -295 235 -34 44 -67 79 -72 77 -5 -1 -7 2 -4 7 9 14 -36 76 -54 76 -9 0
-15 9 -14 23 0 14 -5 22 -17 22 -18 0 -31 21 -25 43 1 6 1 9 -1 5 -11 -19 -25
-6 -19 17 4 15 2 25 -4 25 -6 0 -8 -4 -5 -10 3 -5 2 -10 -4 -10 -13 0 -23 33
-15 56 5 15 4 16 -5 4 -8 -12 -13 -12 -23 -2 -10 10 -10 14 1 21 9 6 10 11 2
15 -6 4 -11 2 -11 -3 0 -6 -4 -11 -10 -11 -5 0 -10 9 -10 21 0 14 -5 19 -14
16 -8 -3 -16 2 -19 14 -3 12 -1 17 6 13 7 -4 3 2 -8 13 -11 11 -27 31 -35 43
-8 12 -26 34 -40 48 -14 13 -18 21 -10 16 13 -7 13 -6 0 12 -8 10 -19 23 -25
27 -6 6 -6 10 3 14 17 7 15 23 -3 23 -8 0 -15 -6 -15 -12 -1 -7 -8 7 -17 32
-8 25 -33 64 -54 87 -22 24 -39 49 -39 58 0 8 -7 15 -17 15 -9 0 -14 3 -10 6
3 3 -8 20 -24 36 -16 17 -29 35 -29 41 0 5 -7 15 -15 21 -8 6 -30 40 -49 76
-19 36 -40 64 -46 62 -7 -2 -10 3 -7 12 4 9 2 18 -3 21 -15 10 -13 58 3 49 6
-4 -8 15 -32 42 -25 27 -45 50 -46 52 -1 1 -2 -7 -1 -18 0 -11 8 -25 16 -30 8
-5 10 -10 4 -10 -19 0 -34 25 -29 50 3 18 -4 33 -27 57 -17 18 -36 29 -41 26
-6 -3 -7 -1 -3 5 8 13 -133 139 -278 248 -164 125 -377 216 -584 250 -117 19
-359 14 -467 -10 -246 -55 -470 -174 -649 -346 -98 -94 -214 -228 -266 -308
-18 -29 -35 -50 -38 -48 -6 6 236 494 363 731 59 110 273 507 477 882 l369
681 -27 54 c-124 245 -210 609 -184 784 27 186 71 266 180 328 43 24 38 30
-15 20z m1099 -3264 c-6 -6 -10 -3 -10 10 0 13 4 16 10 10 7 -7 7 -13 0 -20z
m161 -160 c3 -5 1 -10 -4 -10 -6 0 -11 5 -11 10 0 6 2 10 4 10 3 0 8 -4 11
-10z"/>
<path d="M5803 7085 c-51 -31 -95 -113 -120 -225 -24 -108 -24 -394 1 -510 68
-327 170 -573 431 -1045 21 -38 43 -76 49 -84 5 -7 11 -19 12 -25 1 -7 20 -43
43 -80 22 -38 41 -72 41 -76 0 -5 4 -11 9 -14 14 -9 0 36 -16 56 -14 15 -13
17 9 14 13 -1 30 -6 37 -10 10 -7 10 -4 0 12 -7 11 -19 17 -29 15 -15 -4 -16
2 -9 49 4 29 8 104 8 166 1 89 -2 112 -13 112 -11 0 -15 38 -20 188 -3 103 -8
230 -10 282 -3 62 -2 79 3 50 5 -28 9 48 12 202 2 135 1 244 -3 241 -5 -2 -9
-77 -10 -166 -1 -89 -3 -130 -5 -92 -2 39 -8 79 -14 90 -6 13 -9 108 -7 253 2
127 0 233 -5 235 -12 4 16 57 31 57 12 0 14 -6 16 -42 1 -10 5 -17 9 -15 12 3
36 -44 30 -59 -6 -16 14 -27 23 -13 5 8 3 9 -6 4 -8 -5 -11 -3 -8 6 10 26
-108 241 -158 289 -26 25 -43 39 -39 31 5 -10 4 -12 -4 -7 -6 4 -9 11 -6 16 8
13 -63 70 -119 96 -66 31 -110 30 -163 -1z m327 -145 c6 -11 8 -20 6 -20 -3 0
-10 9 -16 20 -6 11 -8 20 -6 20 3 0 10 -9 16 -20z m60 -84 c0 -6 -6 -19 -14
-28 -11 -15 -13 -11 -12 28 1 38 3 42 14 27 6 -9 12 -22 12 -27z m-46 -1542
c9 -24 2 -26 -12 -4 -7 11 -8 20 -3 20 5 0 12 -7 15 -16z m93 -106 c-3 -8 -6
-5 -6 6 -1 11 2 17 5 13 3 -3 4 -12 1 -19z m-6 -81 c-10 -9 -11 -8 -5 6 3 10
9 15 12 12 3 -3 0 -11 -7 -18z"/>
<path d="M6243 6668 c1 -15 6 -23 11 -18 4 4 4 16 -2 26 -9 16 -10 14 -9 -8z"/>
<path d="M6310 6634 c0 -6 7 -19 16 -30 14 -18 14 -18 3 6 -14 31 -19 36 -19
24z"/>
<path d="M6350 6554 c0 -6 7 -19 16 -30 14 -18 14 -18 3 6 -14 31 -19 36 -19
24z"/>
<path d="M6410 6431 c0 -6 4 -13 10 -16 6 -3 7 1 4 9 -7 18 -14 21 -14 7z"/>
<path d="M6280 5059 c0 -8 7 -24 16 -35 14 -18 15 -18 8 6 -8 31 -24 50 -24
29z"/>
<path d="M6306 4965 c18 -30 30 -43 36 -37 12 12 1 35 -12 27 -5 -3 -11 3 -15
14 -3 11 -12 25 -20 31 -8 7 -3 -9 11 -35z"/>
<path d="M6360 4886 c0 -11 30 -66 36 -66 2 0 -3 15 -12 33 -19 36 -24 44 -24
33z"/>
<path d="M6370 4782 c0 -4 10 -13 23 -21 22 -14 22 -14 3 8 -20 22 -26 25 -26
13z"/>
<path d="M3818 3825 c-49 -74 -88 -138 -88 -142 0 -13 113 -76 260 -147 653
-314 1440 -340 2114 -70 131 53 362 167 400 198 l26 21 -90 138 -90 137 -90
-45 c-629 -316 -1335 -359 -1995 -120 -75 27 -293 127 -355 162 -3 2 -44 -58
-92 -132z"/>
<path d="M6120 2365 c1 -509 6 -562 65 -681 60 -123 179 -212 342 -256 113
-30 363 -30 478 1 233 62 361 196 400 415 12 71 15 178 15 532 l0 444 -160 0
-159 0 -3 -472 -3 -473 -28 -57 c-20 -41 -41 -65 -74 -87 -59 -39 -93 -46
-233 -46 -98 0 -122 4 -165 23 -60 28 -99 63 -128 117 -21 39 -22 52 -27 515
l-5 475 -157 0 -158 0 0 -450z"/>
<path d="M3385 2734 c-19 -42 -35 -78 -35 -80 0 -2 -71 -169 -159 -371 -87
-203 -198 -460 -246 -573 -48 -113 -95 -221 -105 -240 -10 -19 -21 -45 -24
-57 l-7 -23 163 0 163 0 56 138 57 137 327 0 327 0 55 -137 56 -138 164 0 c99
0 163 4 163 10 0 9 -158 374 -390 900 -59 135 -133 305 -165 378 l-58 132
-154 0 -154 0 -34 -76z m243 -399 c23 -55 71 -169 106 -254 36 -85 64 -156 62
-158 -2 -2 -102 -2 -224 -1 l-220 3 69 165 c38 91 88 209 111 263 22 54 44 95
48 90 4 -4 26 -53 48 -108z"/>
<path d="M4447 2803 c-4 -3 -7 -64 -7 -135 l0 -128 240 0 240 0 1 -555 c1
-305 2 -561 3 -567 1 -10 39 -13 156 -13 l155 0 3 568 2 567 240 0 240 0 0
135 0 135 -633 0 c-349 0 -637 -3 -640 -7z"/>
</g>
</svg>
