<svg xmlns="http://www.w3.org/2000/svg" xmlns:xlink="http://www.w3.org/1999/xlink" viewBox="0,0,256,256" width="16px" height="16px" fill-rule="nonzero"><g fill="none" fill-rule="nonzero" stroke="none" stroke-width="1" stroke-linecap="butt" stroke-linejoin="miter" stroke-miterlimit="10" stroke-dasharray="" stroke-dashoffset="0" font-family="none" font-weight="none" font-size="none" text-anchor="none" style="mix-blend-mode: normal"><g transform="scale(6.4,6.4)"><path d="M4.893,36.471c0.787,-1.35 1.711,-3 2.56,-4.577l0.199,-0.37l-0.329,-0.26c-3.755,-2.968 -5.823,-6.968 -5.823,-11.264c0,-8.547 8.299,-15.5 18.5,-15.5c10.201,0 18.5,6.953 18.5,15.5c0,8.547 -8.299,15.5 -18.5,15.5c-2.173,0 -4.339,-0.332 -6.436,-0.985l-0.163,-0.051l-0.16,0.06c-2.945,1.094 -5.987,1.798 -8.348,1.947z" fill="#056df4"></path><path d="M20,5c9.925,0 18,6.729 18,15c0,8.271 -8.075,15 -18,15c-2.123,0 -4.239,-0.324 -6.287,-0.962l-0.326,-0.102l-0.32,0.119c-2.521,0.936 -5.108,1.583 -7.26,1.831c0.671,-1.171 1.402,-2.487 2.086,-3.756l0.398,-0.739l-0.658,-0.52c-3.633,-2.87 -5.633,-6.731 -5.633,-10.871c0,-8.271 8.075,-15 18,-15M20,4c-10.493,0 -19,7.163 -19,16c0,4.601 2.32,8.737 6.013,11.656c-1.066,1.979 -2.176,3.94 -3.013,5.344c2.597,0 6.172,-0.803 9.415,-2.007c2.055,0.64 4.266,1.007 6.585,1.007c10.493,0 19,-7.163 19,-16c0,-8.837 -8.507,-16 -19,-16z" fill="#006dff"></path></g></g></svg>