<?xml version="1.0" standalone="no"?>
<!DOCTYPE svg PUBLIC "-//W3C//DTD SVG 20010904//EN"
 "http://www.w3.org/TR/2001/REC-SVG-20010904/DTD/svg10.dtd">
<svg version="1.0" xmlns="http://www.w3.org/2000/svg"
 width="100" height="40" viewBox="0 0 1024.000000 1024.000000"
 preserveAspectRatio="xMidYMid meet">

<g transform="translate(0.000000,1024.000000) scale(0.100000,-0.100000)"
fill="#000000" stroke="none">
<path d="M0 5120 l0 -5120 5120 0 5120 0 0 5120 0 5120 -5120 0 -5120 0 0
-5120z m7725 957 c249 -335 444 -591 853 -1123 23 -31 40 -60 37 -65 -5 -7
-95 -549 -95 -571 0 -5 -40 -8 -90 -8 -79 0 -90 2 -90 18 0 9 19 131 42 271
26 161 38 258 32 266 -5 7 -68 89 -140 182 -127 163 -850 1125 -909 1210 l-30
43 -2818 0 c-2679 0 -2818 1 -2813 18 2 9 10 44 16 77 6 33 13 66 15 73 4 9
582 12 2847 12 l2843 -1 300 -402z m-3368 -923 c117 -467 212 -855 213 -861 0
-17 -196 -18 -206 -2 -3 6 -32 110 -64 232 l-57 222 -351 3 -350 2 -152 -235
-152 -235 -114 0 c-63 0 -114 3 -114 6 0 3 49 81 109 173 60 91 198 303 306
471 109 168 260 400 335 515 75 116 188 290 251 387 63 98 119 176 124 175 6
-2 105 -385 222 -853z m-509 821 c1 -1 -23 -43 -55 -93 l-58 -91 -664 -1 -663
0 5 23 c3 12 11 51 17 87 7 36 14 71 16 79 4 12 111 13 702 6 383 -4 698 -8
700 -10z m2801 -12 c0 -16 -6 -62 -12 -103 l-12 -75 -286 -3 -286 -2 -36 -223
c-100 -604 -207 -1264 -207 -1270 0 -4 -47 -7 -105 -7 -62 0 -105 4 -105 10 0
5 54 335 120 732 66 397 120 731 120 740 0 17 -35 18 -660 18 -521 0 -660 3
-660 13 0 6 7 50 15 97 8 47 15 86 15 87 0 2 298 4 663 6 364 1 836 3 1050 5
l387 2 -1 -27z m357 -25 c-8 -60 -106 -706 -137 -901 -26 -166 -17 -218 48
-279 40 -39 94 -58 161 -58 108 0 198 65 236 173 8 23 45 242 81 487 37 245
71 451 74 458 6 10 22 -4 57 -45 88 -103 114 -140 114 -165 0 -13 -24 -186
-54 -384 -59 -392 -70 -432 -145 -543 -51 -74 -121 -132 -198 -162 -49 -20
-77 -23 -183 -24 -117 0 -129 2 -187 29 -143 66 -244 238 -230 390 3 34 26
192 51 351 25 160 59 382 76 495 17 113 33 211 35 218 3 8 34 12 106 12 l102
0 -7 -52z m-3456 -427 c0 -4 -25 -47 -56 -95 l-56 -86 -949 0 c-522 0 -949 3
-949 6 0 3 7 46 16 95 l17 89 988 0 c544 0 989 -4 989 -9z m-330 -497 c0 -4
-25 -44 -55 -89 -46 -70 -60 -83 -87 -88 -18 -3 -331 -6 -695 -6 -532 -1 -663
1 -663 11 1 14 15 81 31 141 l10 37 729 0 c402 0 730 -3 730 -6z m-290 -469
c0 -3 -27 -45 -59 -94 l-59 -88 -588 -6 c-324 -4 -592 -3 -595 1 -4 4 2 49 14
99 l22 93 633 0 c347 0 632 -2 632 -5z m4901 -75 c128 -24 275 -128 342 -243
120 -204 91 -451 -73 -622 -268 -278 -740 -167 -866 205 -14 41 -19 82 -18
160 0 89 5 115 27 174 96 245 328 374 588 326z m-761 -597 l0 -93 -2360 0
c-1298 0 -2360 2 -2360 5 0 4 58 103 96 162 l14 22 2305 -2 2305 -2 0 -92z"/>
<path d="M4034 5502 c-100 -153 -344 -546 -344 -552 0 -7 491 -1 499 6 4 4
-114 476 -133 531 -10 29 -13 31 -22 15z"/>
<path d="M7630 4291 c-90 -29 -174 -103 -212 -186 -18 -40 -23 -67 -23 -140 0
-78 4 -97 28 -147 33 -67 90 -121 166 -157 47 -22 70 -26 141 -26 71 0 94 4
140 26 211 100 262 358 104 528 -70 76 -131 103 -239 107 -44 2 -91 0 -105 -5z"/>
</g>
</svg>
